<?xml version="1.0" standalone="no"?>
<!DOCTYPE svg PUBLIC "-//W3C//DTD SVG 20010904//EN"
 "http://www.w3.org/TR/2001/REC-SVG-20010904/DTD/svg10.dtd">
<svg version="1.0" xmlns="http://www.w3.org/2000/svg"
 width="300.000000pt" height="300.000000pt" viewBox="0 0 300.000000 300.000000"
 preserveAspectRatio="xMidYMid meet">
<metadata>
Created by potrace 1.11, written by Peter Selinger 2001-2013
</metadata>
<g transform="translate(0.000000,300.000000) scale(0.100000,-0.100000)"
fill="#000000" stroke="none">
<path d="M1265 2542 c-121 -70 -221 -131 -223 -137 -2 -8 294 -189 348 -212 8
-4 32 -17 53 -30 20 -13 37 -22 38 -21 1 2 2 121 3 266 0 144 1 262 1 261 0 0
-99 -57 -220 -127z"/>
<path d="M1530 2637 c-1 -39 -1 -456 0 -478 0 -13 58 16 218 108 119 68 221
128 225 132 6 6 -139 97 -282 174 -19 11 -63 36 -98 57 l-63 39 0 -32z"/>
<path d="M732 2235 c-117 -67 -213 -127 -214 -132 -1 -6 178 -114 398 -239
l42 -23 0 259 c0 143 -3 260 -7 259 -3 0 -102 -56 -219 -124z"/>
<path d="M1004 2108 c1 -139 3 -255 6 -258 6 -6 440 242 440 252 0 6 -162 103
-248 149 -18 9 -38 22 -45 27 -14 10 -144 82 -150 82 -2 0 -3 -114 -3 -252z"/>
<path d="M1795 2244 c-110 -64 -211 -121 -224 -128 -26 -14 -29 -11 99 -84 19
-10 102 -58 184 -106 82 -47 150 -86 151 -86 1 0 1 117 1 260 0 143 -2 260 -5
260 -3 0 -96 -53 -206 -116z"/>
<path d="M2050 2099 l0 -261 33 19 c17 10 120 70 228 133 l196 113 -223 129
c-123 70 -226 128 -229 128 -3 0 -5 -117 -5 -261z"/>
<path d="M483 1800 c0 -143 1 -260 3 -260 1 0 83 46 181 103 98 57 197 114
221 127 23 13 42 27 42 31 0 4 -12 14 -27 22 -16 8 -114 64 -220 126 -105 61
-194 111 -196 111 -2 0 -4 -117 -4 -260z"/>
<path d="M733 1632 c-122 -70 -222 -129 -223 -132 0 -3 17 -14 38 -26 20 -11
109 -63 197 -113 88 -51 172 -99 186 -107 l27 -13 0 259 c0 143 -1 260 -2 260
0 0 -101 -58 -223 -128z"/>
<path d="M483 1201 c-1 -236 1 -259 16 -253 33 12 431 244 431 251 0 4 -28 22
-62 41 -35 18 -87 48 -116 66 -29 19 -55 34 -59 34 -3 0 -29 14 -57 32 -28 17
-74 44 -102 59 l-51 29 0 -259z"/>
<path d="M1003 900 c0 -235 1 -261 16 -255 8 3 94 52 191 107 96 56 192 111
213 122 41 22 41 23 -23 58 -25 14 -85 49 -135 78 -87 50 -119 69 -216 124
l-46 26 0 -260z"/>
<path d="M2050 900 c0 -143 3 -260 7 -260 3 0 40 20 82 44 42 24 92 53 111 64
177 100 250 145 250 150 0 4 -10 12 -23 18 -12 5 -98 54 -192 108 -93 54 -185
106 -202 117 l-33 18 0 -259z"/>
<path d="M855 1099 c-44 -27 -87 -52 -95 -56 -9 -5 -70 -39 -136 -77 l-121
-70 176 -101 c97 -55 197 -113 222 -128 25 -15 48 -27 51 -27 3 0 6 115 6 255
0 185 -3 255 -12 254 -6 -1 -47 -23 -91 -50z"/>
<path d="M1955 1132 c-16 -10 -61 -36 -100 -59 -38 -22 -86 -50 -106 -61 -90
-50 -199 -115 -197 -117 4 -3 331 -192 398 -230 l56 -32 0 259 c1 182 -2 258
-10 257 -6 0 -24 -8 -41 -17z"/>
<path d="M1529 824 c0 -46 0 -318 0 -421 l1 -71 219 126 c120 70 219 131 220
136 2 6 -170 110 -379 228 -19 11 -41 25 -47 30 -10 8 -13 1 -14 -28z"/>
<path d="M1270 737 c-107 -62 -205 -119 -218 -128 -22 -16 -18 -19 196 -143
121 -69 223 -126 228 -126 5 0 9 110 9 255 0 164 -4 255 -10 255 -5 0 -98 -51
-205 -113z"/>
</g>
</svg>
